<?xml version="1.0" encoding="UTF-8" standalone="no"?>
<!-- Created with Inkscape (http://www.inkscape.org/) -->

<svg
   width="82.578323mm"
   height="16.9333mm"
   viewBox="0 0 82.578323 16.9333"
   version="1.1"
   id="svg910"
   inkscape:version="1.1.2 (0a00cf5339, 2022-02-04)"
   sodipodi:docname="logo.svg"
   xmlns:inkscape="http://www.inkscape.org/namespaces/inkscape"
   xmlns:sodipodi="http://sodipodi.sourceforge.net/DTD/sodipodi-0.dtd"
   xmlns="http://www.w3.org/2000/svg"
   xmlns:svg="http://www.w3.org/2000/svg">
  <sodipodi:namedview
     id="namedview912"
     pagecolor="#ffffff"
     bordercolor="#666666"
     borderopacity="1.0"
     inkscape:pageshadow="2"
     inkscape:pageopacity="0.0"
     inkscape:pagecheckerboard="0"
     inkscape:document-units="mm"
     showgrid="false"
     inkscape:zoom="0.58974467"
     inkscape:cx="190.76052"
     inkscape:cy="323.86897"
     inkscape:window-width="2560"
     inkscape:window-height="1493"
     inkscape:window-x="0"
     inkscape:window-y="0"
     inkscape:window-maximized="1"
     inkscape:current-layer="layer1"
     fit-margin-top="0"
     fit-margin-left="0"
     fit-margin-right="0"
     fit-margin-bottom="0" />
  <defs
     id="defs907" />
  <g
     inkscape:label="图层 1"
     inkscape:groupmode="layer"
     id="layer1">
    <g
       id="g1005"
       transform="translate(-87.919296,-80.812806)">
      <path
         style="fill:#dedede;fill-opacity:1;stroke:none;stroke-width:0.047309"
         d="m 96.385966,80.812806 c -0.13849,0 -0.27568,0.003 -0.41254,0.01 l 0.28619,4.33151 c 0.0336,-7.2e-4 0.0677,-10e-4 0.10151,-10e-4 2.30392,0 4.171774,1.8368 4.171774,4.10225 0,0.6426 -0.15003,1.25119 -0.41793,1.79267 l 3.85644,1.9954 c 0.56363,-1.13379 0.88122,-2.41156 0.88122,-3.76366 0,-4.67609 -3.79065,-8.46666 -8.466664,-8.46666 z m -0.6512,0.0244 c -0.008,5.3e-4 -0.0151,0.002 -0.0227,0.002 l 0.001,0.0127 0.027,-0.0148 c -0.002,1.4e-4 -0.004,-1.4e-4 -0.005,0 z m -6.80249,4.42278 c -0.64632,1.19589 -1.01298,2.56467 -1.01298,4.01947 0,4.67608 3.79066,8.46665 8.46667,8.46665 0.23716,0 0.47188,-0.01 0.70411,-0.0287 l -0.28942,-4.38245 c -0.14443,0.0149 -0.2911,0.0223 -0.43953,0.0223 -2.30393,0 -4.17178,-1.8368 -4.17178,-4.10225 0,-0.73728 0.19797,-1.4293 0.54429,-2.02724 z"
         id="path2996"
         inkscape:connector-curvature="0" />
      <g
         aria-label="AOSC OS"
         id="text72175"
         style="font-size:8.46667px;line-height:1.25;stroke-width:0.264583">
        <path
           d="m 111.29372,83.361276 c 0.2032,-0.618067 0.381,-1.227667 0.55034,-1.871134 h 0.0339 c 0.1778,0.643467 0.3556,1.253067 0.5588,1.871134 l 0.26247,0.846667 h -1.66793 z m -1.69333,3.107268 h 0.71967 l 0.5334,-1.693334 h 2.02353 l 0.52493,1.693334 h 0.75354 l -1.8796,-5.554136 h -0.79587 z"
           style="font-family:'Source Sans 3';-inkscape-font-specification:'Source Sans 3, ';fill:#eeeeee"
           id="path1053" />
        <path
           d="m 116.90711,86.570144 c 1.397,0 2.37914,-1.1176 2.37914,-2.904068 0,-1.769534 -0.98214,-2.853268 -2.37914,-2.853268 -1.397,0 -2.37066,1.075268 -2.37066,2.853268 0,1.786468 0.97366,2.904068 2.37066,2.904068 z m 0,-0.618067 c -0.9906,0 -1.64253,-0.897467 -1.64253,-2.286001 0,-1.380067 0.65193,-2.235201 1.64253,-2.235201 0.9906,0 1.64254,0.855134 1.64254,2.235201 0,1.388534 -0.65194,2.286001 -1.64254,2.286001 z"
           style="font-family:'Source Sans 3';-inkscape-font-specification:'Source Sans 3, ';fill:#eeeeee"
           id="path1055" />
        <path
           d="m 122.02098,86.570144 c 1.17687,0 1.88807,-0.702734 1.88807,-1.583267 0,-0.821267 -0.4826,-1.202267 -1.143,-1.481668 l -0.7874,-0.338666 c -0.44027,-0.186267 -0.92287,-0.389467 -0.92287,-0.922867 0,-0.499534 0.41486,-0.812801 1.03293,-0.812801 0.49107,0 0.9144,0.2032 1.26154,0.508001 l 0.381,-0.457201 c -0.38947,-0.389466 -0.9652,-0.668867 -1.64254,-0.668867 -1.016,0 -1.74413,0.626534 -1.74413,1.473201 0,0.804334 0.59266,1.202267 1.12606,1.430867 l 0.79587,0.347134 c 0.52494,0.237066 0.92287,0.414867 0.92287,0.982133 0,0.541867 -0.4318,0.905934 -1.15993,0.905934 -0.59267,0 -1.15994,-0.254 -1.55787,-0.668867 l -0.39794,0.4572 c 0.4826,0.516467 1.15147,0.829734 1.94734,0.829734 z"
           style="font-family:'Source Sans 3';-inkscape-font-specification:'Source Sans 3, ';fill:#eeeeee"
           id="path1057" />
        <path
           d="m 127.10943,86.570144 c 0.71967,0 1.23614,-0.287867 1.68487,-0.795867 l -0.36407,-0.4064 c -0.3556,0.381 -0.75353,0.5842 -1.27,0.5842 -1.07526,0 -1.7526,-0.880534 -1.7526,-2.277534 0,-1.380067 0.70274,-2.243668 1.74414,-2.243668 0.4572,0 0.8382,0.186267 1.13453,0.499534 l 0.381,-0.4318 c -0.32173,-0.381 -0.8636,-0.685801 -1.524,-0.685801 -1.41393,0 -2.4638,1.092201 -2.4638,2.878668 0,1.811868 1.0414,2.878668 2.42993,2.878668 z"
           style="font-family:'Source Sans 3';-inkscape-font-specification:'Source Sans 3, ';fill:#eeeeee"
           id="path1059" />
        <path
           d="m 133.57795,86.570144 c 1.397,0 2.37914,-1.1176 2.37914,-2.904068 0,-1.769534 -0.98214,-2.853268 -2.37914,-2.853268 -1.397,0 -2.37066,1.075268 -2.37066,2.853268 0,1.786468 0.97366,2.904068 2.37066,2.904068 z m 0,-0.618067 c -0.9906,0 -1.64253,-0.897467 -1.64253,-2.286001 0,-1.380067 0.65193,-2.235201 1.64253,-2.235201 0.9906,0 1.64254,0.855134 1.64254,2.235201 0,1.388534 -0.65194,2.286001 -1.64254,2.286001 z"
           style="font-family:'Source Sans 3';-inkscape-font-specification:'Source Sans 3, ';fill:#eeeeee"
           id="path1061" />
        <path
           d="m 138.69182,86.570144 c 1.17686,0 1.88807,-0.702734 1.88807,-1.583267 0,-0.821267 -0.4826,-1.202267 -1.14301,-1.481668 l -0.7874,-0.338666 c -0.44026,-0.186267 -0.92286,-0.389467 -0.92286,-0.922867 0,-0.499534 0.41486,-0.812801 1.03293,-0.812801 0.49107,0 0.9144,0.2032 1.26154,0.508001 l 0.381,-0.457201 c -0.38947,-0.389466 -0.96521,-0.668867 -1.64254,-0.668867 -1.016,0 -1.74413,0.626534 -1.74413,1.473201 0,0.804334 0.59266,1.202267 1.12606,1.430867 l 0.79587,0.347134 c 0.52493,0.237066 0.92287,0.414867 0.92287,0.982133 0,0.541867 -0.4318,0.905934 -1.15994,0.905934 -0.59266,0 -1.15993,-0.254 -1.55786,-0.668867 l -0.39794,0.4572 c 0.4826,0.516467 1.15147,0.829734 1.94734,0.829734 z"
           style="font-family:'Source Sans 3';-inkscape-font-specification:'Source Sans 3, ';fill:#eeeeee"
           id="path1063" />
      </g>
      <g
         aria-label="Installation"
         id="text72175-0"
         style="font-size:13.4056px;line-height:1.25;stroke-width:0.264583">
        <path
           d="m 109.6766,97.585236 h 1.11266 v -8.794074 h -1.11266 z"
           style="font-family:'Source Sans 3';-inkscape-font-specification:'Source Sans 3, ';fill:#eeeeee"
           id="path1066" />
        <path
           d="m 113.09501,97.585236 h 1.09925 v -4.718771 c 0.65688,-0.656875 1.11267,-1.00542 1.78295,-1.00542 0.85796,0 1.23331,0.522818 1.23331,1.742728 v 3.981463 h 1.09926 v -4.128925 c 0,-1.662294 -0.61665,-2.547064 -1.98402,-2.547064 -0.89818,0 -1.56846,0.482602 -2.18512,1.099259 h -0.0402 l -0.0938,-0.938392 h -0.91158 z"
           style="font-family:'Source Sans 3';-inkscape-font-specification:'Source Sans 3, ';fill:#eeeeee"
           id="path1068" />
        <path
           d="m 122.13037,97.746103 c 1.54164,0 2.38619,-0.88477 2.38619,-1.943812 0,-1.179693 -0.99201,-1.622078 -2.01084,-1.984029 -0.80433,-0.281517 -1.38077,-0.522818 -1.38077,-1.112665 0,-0.496007 0.37535,-0.938392 1.19309,-0.938392 0.58985,0 1.05905,0.187679 1.51484,0.509413 l 0.50941,-0.630063 c -0.50941,-0.428979 -1.21991,-0.737308 -2.02425,-0.737308 -1.42099,0 -2.25214,0.804336 -2.25214,1.849973 0,1.072448 0.9384,1.541644 1.917,1.890189 0.73731,0.268112 1.47462,0.54963 1.47462,1.21991 0,0.563035 -0.42898,1.018825 -1.28694,1.018825 -0.80433,0 -1.39418,-0.254706 -1.95721,-0.723902 l -0.50942,0.643469 c 0.60325,0.589846 1.47462,0.938392 2.42642,0.938392 z"
           style="font-family:'Source Sans 3';-inkscape-font-specification:'Source Sans 3, ';fill:#eeeeee"
           id="path1070" />
        <path
           d="m 127.82772,97.705886 c 0.44239,0 0.87137,-0.107245 1.21991,-0.281518 l -0.22789,-0.777524 c -0.25471,0.12065 -0.50942,0.160867 -0.73731,0.160867 -0.75071,0 -1.00542,-0.455791 -1.00542,-1.246721 v -3.592701 h 1.75613 v -0.898175 h -1.75613 v -2.091273 h -0.92499 l -0.13405,2.091273 -1.01883,0.06703 v 0.831147 h 0.9652 v 3.56589 c 0,1.300343 0.4692,2.171707 1.86338,2.171707 z"
           style="font-family:'Source Sans 3';-inkscape-font-specification:'Source Sans 3, ';fill:#eeeeee"
           id="path1072" />
        <path
           d="m 131.52763,97.746103 c 0.81775,0 1.51484,-0.415574 2.15831,-0.938392 h 0.0402 l 0.0938,0.777525 h 0.91158 v -3.994869 c 0,-1.622078 -0.68368,-2.68112 -2.26554,-2.68112 -1.04564,0 -1.95722,0.442385 -2.56047,0.844553 l 0.42898,0.750713 c 0.50941,-0.321734 1.19309,-0.67028 1.94381,-0.67028 1.05904,0 1.34056,0.790931 1.35396,1.608672 -2.78836,0.308329 -4.02168,0.992015 -4.02168,2.453225 0,1.179693 0.83115,1.849973 1.917,1.849973 z m 0.30833,-0.911581 c -0.63006,0 -1.13947,-0.281518 -1.13947,-1.00542 0,-0.844553 0.73731,-1.34056 2.93582,-1.595266 v 1.756133 c -0.63006,0.563035 -1.16628,0.844553 -1.79635,0.844553 z"
           style="font-family:'Source Sans 3';-inkscape-font-specification:'Source Sans 3, ';fill:#eeeeee"
           id="path1074" />
        <path
           d="m 137.94891,97.705886 c 0.26812,0 0.4826,-0.04022 0.63007,-0.107245 l -0.14747,-0.831147 c -0.10724,0.02681 -0.16086,0.02681 -0.22789,0.02681 -0.17427,0 -0.32173,-0.12065 -0.32173,-0.469196 v -8.28466 h -1.09926 v 8.204227 c 0,0.938392 0.33514,1.46121 1.16628,1.46121 z"
           style="font-family:'Source Sans 3';-inkscape-font-specification:'Source Sans 3, ';fill:#eeeeee"
           id="path1076" />
        <path
           d="m 141.36733,97.705886 c 0.26811,0 0.4826,-0.04022 0.63006,-0.107245 l -0.14746,-0.831147 c -0.10724,0.02681 -0.16087,0.02681 -0.22789,0.02681 -0.17428,0 -0.32174,-0.12065 -0.32174,-0.469196 v -8.28466 h -1.09926 v 8.204227 c 0,0.938392 0.33514,1.46121 1.16629,1.46121 z"
           style="font-family:'Source Sans 3';-inkscape-font-specification:'Source Sans 3, ';fill:#eeeeee"
           id="path1078" />
        <path
           d="m 145.12089,97.746103 c 0.81774,0 1.51483,-0.415574 2.1583,-0.938392 h 0.0402 l 0.0938,0.777525 h 0.91158 v -3.994869 c 0,-1.622078 -0.68368,-2.68112 -2.26554,-2.68112 -1.04564,0 -1.95722,0.442385 -2.56047,0.844553 l 0.42898,0.750713 c 0.50941,-0.321734 1.1931,-0.67028 1.94381,-0.67028 1.05904,0 1.34056,0.790931 1.35396,1.608672 -2.78836,0.308329 -4.02168,0.992015 -4.02168,2.453225 0,1.179693 0.83115,1.849973 1.91701,1.849973 z m 0.30832,-0.911581 c -0.63006,0 -1.13947,-0.281518 -1.13947,-1.00542 0,-0.844553 0.73731,-1.34056 2.93582,-1.595266 v 1.756133 c -0.63006,0.563035 -1.16628,0.844553 -1.79635,0.844553 z"
           style="font-family:'Source Sans 3';-inkscape-font-specification:'Source Sans 3, ';fill:#eeeeee"
           id="path1080" />
        <path
           d="m 152.23923,97.705886 c 0.44239,0 0.87137,-0.107245 1.21991,-0.281518 l -0.22789,-0.777524 c -0.25471,0.12065 -0.50942,0.160867 -0.73731,0.160867 -0.75071,0 -1.00542,-0.455791 -1.00542,-1.246721 v -3.592701 h 1.75613 v -0.898175 h -1.75613 v -2.091273 h -0.92499 l -0.13405,2.091273 -1.01883,0.06703 v 0.831147 h 0.9652 v 3.56589 c 0,1.300343 0.4692,2.171707 1.86338,2.171707 z"
           style="font-family:'Source Sans 3';-inkscape-font-specification:'Source Sans 3, ';fill:#eeeeee"
           id="path1082" />
        <path
           d="m 154.71926,97.585236 h 1.09926 v -6.515122 h -1.09926 z m 0.54963,-7.855682 c 0.42898,0 0.73731,-0.281517 0.73731,-0.723902 0,-0.428979 -0.30833,-0.723903 -0.73731,-0.723903 -0.42898,0 -0.73731,0.294924 -0.73731,0.723903 0,0.442385 0.30833,0.723902 0.73731,0.723902 z"
           style="font-family:'Source Sans 3';-inkscape-font-specification:'Source Sans 3, ';fill:#eeeeee"
           id="path1084" />
        <path
           d="m 160.55067,97.746103 c 1.59527,0 3.01626,-1.246721 3.01626,-3.405023 0,-2.185112 -1.42099,-3.431833 -3.01626,-3.431833 -1.59526,0 -3.01626,1.246721 -3.01626,3.431833 0,2.158302 1.421,3.405023 3.01626,3.405023 z m 0,-0.911581 c -1.11266,0 -1.87678,-1.00542 -1.87678,-2.493442 0,-1.501427 0.76412,-2.520252 1.87678,-2.520252 1.12607,0 1.87679,1.018825 1.87679,2.520252 0,1.488022 -0.75072,2.493442 -1.87679,2.493442 z"
           style="font-family:'Source Sans 3';-inkscape-font-specification:'Source Sans 3, ';fill:#eeeeee"
           id="path1086" />
        <path
           d="m 165.28285,97.585236 h 1.09925 v -4.718771 c 0.65688,-0.656875 1.11267,-1.00542 1.78295,-1.00542 0.85796,0 1.23331,0.522818 1.23331,1.742728 v 3.981463 h 1.09926 v -4.128925 c 0,-1.662294 -0.61665,-2.547064 -1.98403,-2.547064 -0.89817,0 -1.56845,0.482602 -2.18511,1.099259 h -0.0402 l -0.0938,-0.938392 h -0.91158 z"
           style="font-family:'Source Sans 3';-inkscape-font-specification:'Source Sans 3, ';fill:#eeeeee"
           id="path1088" />
      </g>
    </g>
  </g>
</svg>
